# Blender v2.77 (sub 0) OBJ File: 'lightswitch.blend'
# www.blender.org
mtllib lightswitch_trigger.mtl
o Cube.002_Cube.003
v -0.673485 1.229755 -2.450892
v -0.652257 1.268037 -2.450892
v -0.673485 1.229755 -3.246081
v -0.652257 1.268037 -3.246081
v 0.118678 1.160450 -2.450892
v 0.100812 1.201030 -2.450892
v 0.118678 1.160450 -3.246081
v 0.100812 1.201030 -3.246081
v 0.046578 1.265525 -3.246081
v -0.083574 1.178145 -3.246081
v 0.046578 1.265525 -2.450892
v -0.083574 1.178145 -2.450892
v -0.587074 1.222195 -3.246081
v -0.620002 1.307634 -2.450892
v -0.620002 1.307634 -3.246081
v -0.587074 1.222195 -2.450892
v 0.071120 1.245403 -3.246081
v 0.054743 1.166043 -2.450892
v 0.054743 1.166043 -3.246081
v 0.071120 1.245403 -2.450892
v -0.580703 1.330942 -3.246081
v -0.429309 1.208393 -2.450892
v -0.429309 1.208393 -3.246081
v -0.580703 1.330942 -2.450892
vn -0.874500 0.485000 0.000000
vn -0.000000 0.000000 -1.000000
vn 0.915200 0.402900 0.000000
vn 0.000000 0.000000 1.000000
vn -0.087200 -0.996200 0.000000
vn -0.775300 0.631600 0.000000
vn 0.634000 0.773300 0.000000
vn -0.510100 0.860100 0.000000
vn 0.831100 0.556100 0.000000
vn 0.103700 0.994600 0.000000
usemtl None
s off
f 2//1 4//1 3//1 1//1
f 17//2 8//2 7//2 19//2
f 8//3 6//3 5//3 7//3
f 14//4 2//4 1//4 16//4
f 18//5 19//5 7//5 5//5
f 14//6 15//6 4//6 2//6
f 20//7 17//7 9//7 11//7
f 22//5 23//5 10//5 12//5
f 20//4 11//4 12//4 18//4
f 21//2 9//2 10//2 23//2
f 4//2 15//2 13//2 3//2
f 1//5 3//5 13//5 16//5
f 24//8 21//8 15//8 14//8
f 24//4 14//4 16//4 22//4
f 6//4 20//4 18//4 5//4
f 6//9 8//9 17//9 20//9
f 12//5 10//5 19//5 18//5
f 9//2 17//2 19//2 10//2
f 11//4 24//4 22//4 12//4
f 11//10 9//10 21//10 24//10
f 15//2 21//2 23//2 13//2
f 16//5 13//5 23//5 22//5
