# Blender v2.77 (sub 0) OBJ File: 'lightswitch.blend'
# www.blender.org
mtllib lightswitch_body.mtl
o Plane
v -0.884190 1.123417 -1.399560
v 1.115810 1.123417 -1.399560
v -0.884190 1.123417 -3.399560
v 1.115810 1.123417 -3.399560
v -0.835141 1.305941 -1.448610
v 1.066760 1.305941 -1.448610
v -0.835141 1.305941 -3.350510
v 1.066760 1.305941 -3.350510
v -0.884190 1.260328 -3.399560
v -0.884190 1.260328 -1.399560
v 1.115810 1.260328 -1.399560
v 1.115810 1.260328 -3.399560
v -0.755912 1.305941 -3.271281
v -0.755912 1.305941 -1.527839
v 0.987531 1.305941 -1.527839
v 0.987531 1.305941 -3.271281
v -0.835141 1.305941 -3.350510
v -0.835141 1.305941 -1.448610
v 1.066760 1.305941 -1.448610
v 1.066760 1.305941 -3.350510
v -0.755912 1.238712 -3.271281
v -0.755912 1.238712 -1.527839
v 0.987531 1.238712 -1.527839
v 0.987531 1.238712 -3.271281
vn 0.000000 -1.000000 0.000000
vn 0.000000 0.000000 1.000000
vn 1.000000 0.000000 0.000000
vn -1.000000 0.000000 0.000000
vn 0.000000 0.000000 -1.000000
vn -0.681000 0.732300 0.000000
vn 0.000000 0.732300 0.681000
vn 0.681000 0.732300 0.000000
vn 0.000000 0.732300 -0.681000
vn 0.000000 1.000000 0.000000
usemtl None
s off
f 1//1 3//1 4//1 2//1
f 8//2 7//2 17//2 20//2
f 2//3 4//3 12//3 11//3
f 3//4 1//4 10//4 9//4
f 4//5 3//5 9//5 12//5
f 1//2 2//2 11//2 10//2
f 5//6 7//6 9//6 10//6
f 6//7 5//7 10//7 11//7
f 8//8 6//8 11//8 12//8
f 7//9 8//9 12//9 9//9
f 15//4 16//4 24//4 23//4
f 5//2 6//2 19//2 18//2
f 6//2 8//2 20//2 19//2
f 7//2 5//2 18//2 17//2
f 14//10 13//10 17//10 18//10
f 15//10 14//10 18//10 19//10
f 16//10 15//10 19//10 20//10
f 13//10 16//10 20//10 17//10
f 22//10 23//10 24//10 21//10
f 13//3 14//3 22//3 21//3
f 16//2 13//2 21//2 24//2
f 14//5 15//5 23//5 22//5
